# xmcd
#
# Track frame offsets: 
#        150
#        18972
#        41895
#        60487
#        71997
#        91255
#        115447
#        146692
#        162587
#        192365
#        212690
#        248250
#        271640
#        293107
#        326457
#
# Disc length: 4636 seconds
#
# Revision: 10
# Processed by: cddbd v1.5.2PL0 Copyright (c) Steve Scherf et al.
# Submitted via: ExactAudioCopy v1.0b6
#
DISCID=da121a0f
DTITLE=Audio Best Blues Guitars - Best Blues Guitars (AUDIO's Audiophi
DTITLE=le)
DYEAR=1999
DGENRE=Blues
TTITLE0=Gary Moore - Still Got The Blues (1990)
TTITLE1=Peter Green - Slabo Day (1978)
TTITLE2=Robert Cray - Smoking Gun (1986)
TTITLE3=John Lee Hooker - Boom Boom (1962)
TTITLE4=Cream - Crossroads (1968)
TTITLE5=Stevie Ray Vaughan - Texas Flood (1983)
TTITLE6=Mike Bloomfield and Al Kooper - Albert's Shuffle (1968)
TTITLE7=The Allman Brothers Band - Don't Keep Me Wonderin' (1970)
TTITLE8=Roy Buchanan - I Won't Tell You No Lies (1973)
TTITLE9=Jeff Beck - She's A Woman (1975)
TTITLE10=Larry Carlton - The B. P. Blues (1987)
TTITLE11=Robben Ford and The Blue Line - Don't Let Me Be Misunderstood (
TTITLE11=1995)
TTITLE12=Steve Vai - Blue Powder (1990)
TTITLE13=Joe Satriani - Slow Down Blues (1995)
TTITLE14=Toscho - Dinner At Woolfie's (1996)
EXTD=Sony - 2 985691/07-985691-10Vereinigte Motor-Verlage, Stuttgart/ P
EXTD=hono Music - AUDIO - CD 27000671 DRemastered -> CEDAR - 24 Karat Go
EXTD=ld-CDZusammenstellung und Booklet-Text: Volker KoerdtCD-Mastering
EXTD=und Technik-Text: Wolfgang FeldGestaltung und DTP-Satz: Ulrike S
EXTD=peidel.
EXTT0=
EXTT1=
EXTT2=
EXTT3=
EXTT4=
EXTT5=
EXTT6=
EXTT7=
EXTT8=
EXTT9=
EXTT10=
EXTT11=
EXTT12=
EXTT13=
EXTT14=
PLAYORDER=
